<svg width="700" height="700" viewBox="0 0 700 700" fill="none" xmlns="http://www.w3.org/2000/svg">
<rect width="700" height="700" rx="157" fill="white"/>
<g filter="url(#filter0_d_3400_33182)">
<path d="M566.074 483.216L499.635 348.859C499.413 363.095 494.525 376.664 488.303 392.458C468.749 441.841 420.975 479.879 377.646 452.073C331.649 422.488 357.647 368.656 317.873 362.428C297.43 359.091 284.098 384.45 269.655 398.687C237.213 430.719 203.882 401.801 200.772 357.312L135.222 481.658C126.333 495.228 123.667 513.913 128.111 531.931C132.777 550.616 144.11 565.965 161.886 575.975C233.658 608.674 293.875 623.356 356.314 623.356H360.092C423.197 623.356 468.082 608.007 539.632 575.308C555.853 566.188 567.407 550.839 571.851 532.153C576.295 514.135 573.629 495.228 565.852 483.661L566.074 483.216Z" fill="#11141D"/>
<path d="M269.655 398.687C284.098 384.45 297.43 359.092 317.873 362.428C357.425 368.879 331.427 422.711 377.646 452.074C420.975 479.657 468.749 441.841 488.303 392.458C494.525 376.665 499.413 363.096 499.635 348.859C499.857 333.51 495.191 317.272 480.97 296.14C429.419 219.619 268.099 194.038 213.215 299.699C202.994 319.496 199.661 339.516 200.772 357.312C203.882 401.801 237.435 430.719 269.655 398.687Z" fill="#FFF3E4"/>
<path d="M435.196 208.274C432.085 191.368 421.864 165.787 389.867 154.665C392.978 143.765 402.088 119.073 425.197 105.727C432.53 101.5 435.196 91.9351 430.752 84.372C426.53 77.0313 416.976 74.362 409.421 78.8109C374.09 99.4983 362.314 135.757 358.98 149.548C357.203 149.548 355.87 149.103 354.314 149.103C309.874 149.103 281.209 178.466 281.209 224.067C281.209 248.981 289.875 270.558 305.429 284.35C316.762 294.36 330.983 299.699 346.759 299.699C349.87 299.699 352.981 299.699 356.314 299.031C383.645 295.695 407.643 282.348 422.309 262.55C434.085 246.534 438.752 227.182 435.196 208.274Z" fill="#D23403"/>
<path d="M334.983 179.356C309.429 174.239 288.986 217.394 324.095 219.173C350.315 220.508 354.429 179.356 334.983 179.356Z" fill="#FFF3E4"/>
<path d="M350.092 307.262C379.177 307.262 402.755 297.502 402.755 285.462C402.755 273.423 379.177 263.663 350.092 263.663C321.008 263.663 297.43 273.423 297.43 285.462C297.43 297.502 321.008 307.262 350.092 307.262Z" fill="#FFF3E4"/>
</g>
<defs>
<filter id="filter0_d_3400_33182" x="126" y="76.644" width="448" height="550.712" filterUnits="userSpaceOnUse" color-interpolation-filters="sRGB">
<feFlood flood-opacity="0" result="BackgroundImageFix"/>
<feColorMatrix in="SourceAlpha" type="matrix" values="0 0 0 0 0 0 0 0 0 0 0 0 0 0 0 0 0 0 127 0" result="hardAlpha"/>
<feOffset dy="4"/>
<feComposite in2="hardAlpha" operator="out"/>
<feColorMatrix type="matrix" values="0 0 0 0 0 0 0 0 0 0 0 0 0 0 0 0 0 0 0.25 0"/>
<feBlend mode="normal" in2="BackgroundImageFix" result="effect1_dropShadow_3400_33182"/>
<feBlend mode="normal" in="SourceGraphic" in2="effect1_dropShadow_3400_33182" result="shape"/>
</filter>
</defs>
</svg>
